# xmcd CD database file
#
# Track frame offsets:
#	150
#	8814
#	22782
#	41137
#	56562
#	69061
#	81593
#	94847
#	108562
#	126055
#	143950
#
# Disc length: 2107 seconds
#
# Revision: 0
# Processed by: cddbd v1.5.2PL0 Copyright (c) Steve Scherf et al.
# Submitted via: CDex 1.51
#
DISCID=8d08390b
DTITLE=Bobby Mountian - Holding On
DYEAR=2009
DGENRE=Country
TTITLE0=Bobby Mountain - Hog Tied
TTITLE1=Bobby Mountain - Country Gold
TTITLE2=Bobby Mountain - Holding On 
TTITLE3=Bobby Mountain - Guitar Song
TTITLE4=Bobby Mountain - New Man
TTITLE5=Bobby Mountain - All I Can Be
TTITLE6=Bobby Mountain - Ellijay
TTITLE7=Bobby Mountain - Build A Fire
TTITLE8=Bobby Mountain - Only Money
TTITLE9=Bobby Mountain - Mind Over Matter
TTITLE10=Bobby Mountain - Make A Memory
EXTD=YEAR: 2009
EXTT0=
EXTT1=
EXTT2=
EXTT3=
EXTT4=
EXTT5=
EXTT6=
EXTT7=
EXTT8=
EXTT9=
EXTT10=
PLAYORDER=
